<?xml version="1.0" encoding="UTF-8" standalone="no"?>
<!-- Created with Inkscape (http://www.inkscape.org/) -->

<svg
   version="1.1"
   id="svg1"
   width="21.921955"
   height="30"
   viewBox="0 0 21.921955 30"
   xmlns="http://www.w3.org/2000/svg"
   xmlns:svg="http://www.w3.org/2000/svg">
  <defs
     id="defs1" />
  <path
     style="display:inline;fill:#ffffff;fill-opacity:1;stroke-width:0.100442"
     d="M 9.4881515,29.969977 C 7.8001654,29.832506 5.6957755,29.061067 4.3154008,28.073722 3.5970188,27.559883 3.0213589,27.057183 3.3109832,27.196607 c 3.2575071,1.568154 6.7176848,1.335045 9.2966998,-0.626312 l 0.595424,-0.452824 1.030224,0.251881 c 0.866605,0.21188 1.249543,0.249911 2.411186,0.239459 0.759531,-0.0069 1.391678,0.0261 1.404771,0.07317 0.03792,0.136365 -1.608592,1.411064 -2.434189,1.884485 -1.82632,1.047265 -4.101567,1.56846 -6.1269475,1.403509 z m -3.9091432,-2.5609 C 3.502285,26.851536 1.7788807,25.474836 1.2376476,23.941082 0.95308655,23.134689 1.0107782,21.966599 1.3715388,21.230168 1.9098481,20.1313 2.4671816,19.535874 3.8634129,18.567976 c 0.6262446,-0.434127 2.4106023,-1.517322 2.4106023,-1.463359 0,0.840426 0.1248315,2.256018 0.2321037,2.632039 0.6534942,2.290723 2.5155308,4.343735 5.1349081,5.661563 l 0.978984,0.492534 -0.473989,0.361917 c -0.63165,0.482301 -1.569763,0.915903 -2.5201588,1.164836 -1.0683238,0.27982 -2.9880771,0.275821 -4.0468549,-0.0084 z m 8.7919537,-1.595551 c -0.269953,-0.04832 -0.528443,-0.125478 -0.574423,-0.171459 -0.04598,-0.04598 0.05267,-0.229413 0.219233,-0.407631 0.41853,-0.447827 1.254772,-1.817258 1.500105,-2.456571 0.708919,-1.847379 0.684622,-3.749578 -0.07208,-5.643041 -1.250359,-3.128725 -1.25799,-3.296073 -0.202891,-4.449092 0.343914,-0.375831 0.726234,-0.812699 0.8496,-0.97082 0.12336,-0.15812 0.281638,-0.26549 0.351715,-0.238598 0.196515,0.07541 1.081271,2.94256 1.081271,3.503975 0,0.100851 0.16302,0.647306 0.362266,1.214344 0.975542,2.776309 1.174644,3.415648 1.35323,4.345359 0.368464,1.918211 0.182968,3.551541 -0.496617,4.372791 -0.161534,0.195209 -0.535763,0.487247 -0.83162,0.648974 -0.504265,0.27565 -0.616476,0.295474 -1.793443,0.316839 -0.690537,0.0126 -1.476393,-0.01674 -1.746346,-0.06507 z M 12.177504,24.972228 C 9.3503194,23.361089 7.3914046,20.559522 7.2086609,17.865973 c -0.081318,-1.198575 -0.031826,-1.332576 0.6499646,-1.7598 2.0522793,-1.286 3.0182525,-2.079842 3.6101935,-2.966869 0.340274,-0.509906 0.383565,-1.228596 0.183031,-3.03863 -0.187774,-1.6948574 -0.149539,-2.1421395 0.212117,-2.4814077 0.326791,-0.3065618 1.110642,-0.3080886 1.708024,-0.00333 0.604998,0.3086469 1.47517,1.1471212 1.982553,1.9103326 0.659766,0.9924311 0.670012,1.1135241 0.147802,1.7467551 -0.239817,0.290802 -0.460261,0.55133 -0.489874,0.578951 -0.201266,0.18773 -1.000324,1.200567 -1.109382,1.406185 -0.204161,0.384924 -0.15189,1.46088 0.10735,2.209719 0.124309,0.359079 0.257584,0.69807 0.296165,0.753312 0.108854,0.155861 0.474319,1.23545 0.663036,1.958615 0.112875,0.432561 0.170062,1.042651 0.169453,1.807951 -0.0011,1.360165 -0.206415,2.224129 -0.823553,3.465242 -0.406241,0.81698 -1.255098,1.958613 -1.456321,1.958613 -0.06088,0 -0.457653,-0.197724 -0.881716,-0.439387 z m 8.117965,-2.598975 c -0.02723,-0.179539 -0.07535,-0.590433 -0.10695,-0.913098 -0.117075,-1.195649 -0.647694,-2.800214 -1.632835,-4.937636 -0.426909,-0.926245 -0.636336,-1.524683 -0.720576,-2.059055 -0.06532,-0.414322 -0.304602,-1.386097 -0.531747,-2.159498 C 17.050632,11.44346 16.862977,10.56488 16.819785,10.039914 16.74744,9.1606036 16.471732,8.4504299 15.773001,7.343566 14.954999,6.0477669 14.534052,4.755461 14.71569,4.0976222 c 0.199372,-0.722065 0.857527,-1.137679 1.668976,-1.0539301 1.772492,0.1829373 3.82805,2.5433319 4.84451,5.5629433 0.898728,2.6698656 0.926603,7.6373066 0.06274,11.1802406 -0.297294,1.219288 -0.82913,2.912812 -0.914739,2.912812 -0.01772,0 -0.05448,-0.146895 -0.0817,-0.326435 z M 0.07969472,21.939426 C 0.03388533,21.722277 -0.00194053,20.753629 8.1564425e-5,19.786876 0.00329168,18.251893 0.0339243,17.920956 0.24180501,17.175391 0.82948343,15.067684 2.4444381,12.832301 3.9082444,12.10039 5.2023817,11.453316 6.55796,12.07582 6.8668656,13.459046 c 0.1115445,0.499479 -0.038808,2.475232 -0.2036196,2.675723 -0.051748,0.06295 -0.5107863,0.375329 -1.0200835,0.694167 -2.2331934,1.398066 -3.5524697,2.320058 -4.0925187,2.860107 -0.59310265,0.593103 -1.20126326,1.664266 -1.20423071,2.121029 -8.4371e-4,0.130215 -0.0424635,0.301416 -0.0924834,0.380459 -0.0671582,0.106125 -0.11273002,0.04046 -0.17423497,-0.251105 z M 6.4103146,11.556867 C 5.6055761,11.212042 5.7718742,9.8064286 6.6742152,9.3262796 7.8161809,8.7186222 8.7830675,9.6753351 8.2026948,10.838676 8.1086733,11.02714 7.9126131,11.269404 7.7670056,11.37704 7.4677555,11.598252 6.7339038,11.695523 6.4103146,11.556867 Z M 11.69787,5.5414017 C 10.718425,5.0136751 11.181427,3.5955811 12.195967,4.0158174 12.547909,4.1615966 12.949942,4.8245801 12.855223,5.1029818 12.668035,5.6531754 12.220185,5.8228263 11.69787,5.5414017 Z M 12.652067,3.0260288 C 11.912263,2.8128637 11.561856,2.5893446 11.297872,2.1622101 10.865929,1.4633116 11.175677,0.73587674 12.099637,0.27928872 13.123039,-0.22644 14.142457,-0.03176132 14.58104,0.75316333 15.11053,1.700782 14.935943,2.7607054 14.201992,3.0543742 13.70744,3.2522552 13.418885,3.2469779 12.652067,3.0260288 Z"
     id="path2" />
</svg>
